<mxfile>
    <diagram id="ChbTW0xW02oSQypzC5n8" name="Page-1">
        <mxGraphModel dx="965" dy="572" grid="1" gridSize="10" guides="1" tooltips="1" connect="1" arrows="1" fold="1" page="1" pageScale="1" pageWidth="827" pageHeight="1169" math="0" shadow="0">
            <root>
                <mxCell id="0"/>
                <mxCell id="1" parent="0"/>
                <mxCell id="3" value="Client" style="shape=umlActor;verticalLabelPosition=bottom;verticalAlign=top;html=1;shadow=0;labelBackgroundColor=none;fontSize=18;fontStyle=1;spacingTop=4;" parent="1" vertex="1">
                    <mxGeometry x="60" y="390" width="30" height="60" as="geometry"/>
                </mxCell>
                <mxCell id="5" value="&amp;lt;&amp;lt;include&amp;gt;&amp;gt;" style="html=1;verticalAlign=bottom;labelBackgroundColor=none;endArrow=open;endFill=0;dashed=1;fontSize=16;fontStyle=1;spacingBottom=4;entryX=0;entryY=1;entryDx=0;entryDy=0;exitX=1;exitY=0;exitDx=0;exitDy=0;" parent="1" source="9" target="8" edge="1">
                    <mxGeometry width="160" relative="1" as="geometry">
                        <mxPoint x="414" y="300" as="sourcePoint"/>
                        <mxPoint x="514" y="240" as="targetPoint"/>
                    </mxGeometry>
                </mxCell>
                <mxCell id="6" value="&amp;lt;&amp;lt;extend&amp;gt;&amp;gt;" style="html=1;verticalAlign=bottom;labelBackgroundColor=none;endArrow=open;endFill=0;dashed=1;fontSize=17;fontStyle=1;spacingBottom=5;entryX=0;entryY=0.5;entryDx=0;entryDy=0;exitX=0.989;exitY=0.717;exitDx=0;exitDy=0;exitPerimeter=0;" parent="1" source="8" target="16" edge="1">
                    <mxGeometry width="160" relative="1" as="geometry">
                        <mxPoint x="600" y="770" as="sourcePoint"/>
                        <mxPoint x="750" y="730" as="targetPoint"/>
                    </mxGeometry>
                </mxCell>
                <mxCell id="8" value="&lt;span&gt;Authentification&lt;/span&gt;" style="ellipse;whiteSpace=wrap;html=1;align=center;fontSize=17;" parent="1" vertex="1">
                    <mxGeometry x="414" y="50" width="150" height="110" as="geometry"/>
                </mxCell>
                <mxCell id="9" value="&lt;span&gt;Achats de Produits&lt;br&gt;&lt;/span&gt;" style="ellipse;whiteSpace=wrap;html=1;align=center;fontSize=17;verticalAlign=middle;" parent="1" vertex="1">
                    <mxGeometry x="280" y="290" width="100" height="90" as="geometry"/>
                </mxCell>
                <mxCell id="10" value="Contacter l'Admin" style="ellipse;whiteSpace=wrap;html=1;align=center;fontSize=17;" parent="1" vertex="1">
                    <mxGeometry x="364" y="410" width="100" height="100" as="geometry"/>
                </mxCell>
                <mxCell id="11" value="Consulter ses commandes" style="ellipse;whiteSpace=wrap;html=1;align=center;fontSize=17;" parent="1" vertex="1">
                    <mxGeometry x="430" y="550" width="140" height="100" as="geometry"/>
                </mxCell>
                <mxCell id="16" value="&lt;span&gt;Récupérer Compte&lt;/span&gt;" style="ellipse;whiteSpace=wrap;html=1;align=center;fontSize=17;" parent="1" vertex="1">
                    <mxGeometry x="690" y="110" width="100" height="90" as="geometry"/>
                </mxCell>
                <mxCell id="17" value="&lt;span&gt;Supprimer Compte&lt;/span&gt;" style="ellipse;whiteSpace=wrap;html=1;align=center;fontSize=17;" parent="1" vertex="1">
                    <mxGeometry x="690" y="240" width="100" height="90" as="geometry"/>
                </mxCell>
                <mxCell id="18" value="" style="endArrow=none;html=1;rounded=0;fontSize=17;entryX=0.004;entryY=0.717;entryDx=0;entryDy=0;entryPerimeter=0;exitX=1;exitY=0.3333333333333333;exitDx=0;exitDy=0;exitPerimeter=0;" parent="1" source="3" target="9" edge="1">
                    <mxGeometry relative="1" as="geometry">
                        <mxPoint x="150" y="440" as="sourcePoint"/>
                        <mxPoint x="310" y="440" as="targetPoint"/>
                    </mxGeometry>
                </mxCell>
                <mxCell id="21" value="" style="endArrow=none;html=1;rounded=0;fontSize=17;exitX=1;exitY=1;exitDx=0;exitDy=0;exitPerimeter=0;entryX=0;entryY=0;entryDx=0;entryDy=0;" parent="1" source="3" target="11" edge="1">
                    <mxGeometry relative="1" as="geometry">
                        <mxPoint x="60" y="645.47" as="sourcePoint"/>
                        <mxPoint x="330" y="610" as="targetPoint"/>
                    </mxGeometry>
                </mxCell>
                <mxCell id="22" value="" style="endArrow=none;html=1;rounded=0;fontSize=17;entryX=0.004;entryY=0.646;entryDx=0;entryDy=0;entryPerimeter=0;" parent="1" source="3" target="10" edge="1">
                    <mxGeometry relative="1" as="geometry">
                        <mxPoint x="109.6" y="565.47" as="sourcePoint"/>
                        <mxPoint x="330.0000000000001" y="480" as="targetPoint"/>
                    </mxGeometry>
                </mxCell>
                <mxCell id="24" style="edgeStyle=orthogonalEdgeStyle;rounded=0;orthogonalLoop=1;jettySize=auto;html=1;exitX=0.5;exitY=1;exitDx=0;exitDy=0;fontSize=17;" parent="1" source="11" target="11" edge="1">
                    <mxGeometry relative="1" as="geometry"/>
                </mxCell>
                <mxCell id="25" value="" style="endArrow=none;html=1;rounded=0;fontSize=17;entryX=-0.007;entryY=0.665;entryDx=0;entryDy=0;entryPerimeter=0;exitX=0.75;exitY=0.1;exitDx=0;exitDy=0;exitPerimeter=0;" parent="1" source="3" target="8" edge="1">
                    <mxGeometry relative="1" as="geometry">
                        <mxPoint x="240" y="290" as="sourcePoint"/>
                        <mxPoint x="420.4000000000001" y="204.53" as="targetPoint"/>
                    </mxGeometry>
                </mxCell>
                <mxCell id="28" value="&amp;lt;&amp;lt;include&amp;gt;&amp;gt;" style="html=1;verticalAlign=bottom;labelBackgroundColor=none;endArrow=open;endFill=0;dashed=1;fontSize=16;fontStyle=1;spacingBottom=4;entryX=0.5;entryY=1;entryDx=0;entryDy=0;" parent="1" source="10" target="8" edge="1">
                    <mxGeometry width="160" relative="1" as="geometry">
                        <mxPoint x="445.6370414047301" y="313.4357633272391" as="sourcePoint"/>
                        <mxPoint x="500.4499999999998" y="251.76" as="targetPoint"/>
                    </mxGeometry>
                </mxCell>
                <mxCell id="29" value="&amp;lt;&amp;lt;include&amp;gt;&amp;gt;" style="html=1;verticalAlign=bottom;labelBackgroundColor=none;endArrow=open;endFill=0;dashed=1;fontSize=16;fontStyle=1;spacingBottom=4;entryX=0.755;entryY=0.964;entryDx=0;entryDy=0;entryPerimeter=0;" parent="1" source="11" target="8" edge="1">
                    <mxGeometry width="160" relative="1" as="geometry">
                        <mxPoint x="455.6370414047301" y="323.4357633272391" as="sourcePoint"/>
                        <mxPoint x="580" y="460" as="targetPoint"/>
                    </mxGeometry>
                </mxCell>
                <mxCell id="32" value="&amp;lt;&amp;lt;extend&amp;gt;&amp;gt;" style="html=1;verticalAlign=bottom;labelBackgroundColor=none;endArrow=open;endFill=0;dashed=1;fontSize=17;fontStyle=1;spacingBottom=5;entryX=0;entryY=0.5;entryDx=0;entryDy=0;exitX=1;exitY=1;exitDx=0;exitDy=0;" parent="1" source="8" target="17" edge="1">
                    <mxGeometry width="160" relative="1" as="geometry">
                        <mxPoint x="583.3499999999999" y="158.8699999999999" as="sourcePoint"/>
                        <mxPoint x="699.9999999999998" y="165" as="targetPoint"/>
                    </mxGeometry>
                </mxCell>
                <mxCell id="33" value="&amp;lt;&amp;lt;include&amp;gt;&amp;gt;" style="html=1;verticalAlign=bottom;labelBackgroundColor=none;endArrow=open;endFill=0;dashed=1;fontSize=16;fontStyle=1;spacingBottom=4;exitX=0.767;exitY=0.051;exitDx=0;exitDy=0;exitPerimeter=0;entryX=0;entryY=0.5;entryDx=0;entryDy=0;" edge="1" parent="1" source="11" target="34">
                    <mxGeometry width="160" relative="1" as="geometry">
                        <mxPoint x="513.0475056974669" y="560.0474066110824" as="sourcePoint"/>
                        <mxPoint x="620" y="500" as="targetPoint"/>
                    </mxGeometry>
                </mxCell>
                <mxCell id="34" value="Valider Panier" style="ellipse;whiteSpace=wrap;html=1;align=center;fontSize=17;" vertex="1" parent="1">
                    <mxGeometry x="640" y="500" width="100" height="100" as="geometry"/>
                </mxCell>
            </root>
        </mxGraphModel>
    </diagram>
</mxfile>